<svg xmlns="http://www.w3.org/2000/svg" xmlns:xlink="http://www.w3.org/1999/xlink" width="600" zoomAndPan="magnify" viewBox="0 0 450 449.999984" height="600" preserveAspectRatio="xMidYMid meet" version="1.0"><defs><g/><clipPath id="928a016826"><path d="M 160.449219 84.613281 L 289.398438 84.613281 L 289.398438 158.25 L 160.449219 158.25 Z M 160.449219 84.613281 " clip-rule="nonzero"/></clipPath></defs><path fill="#ffffff" d="M 131.582031 155.441406 L 315.882812 155.441406 C 321.203125 155.441406 326.304688 157.554688 330.066406 161.316406 C 333.828125 165.078125 335.941406 170.179688 335.941406 175.5 L 335.941406 289.675781 C 335.941406 294.996094 333.828125 300.097656 330.066406 303.859375 C 326.304688 307.621094 321.203125 309.734375 315.882812 309.734375 L 131.582031 309.734375 C 126.261719 309.734375 121.160156 307.621094 117.398438 303.859375 C 113.636719 300.097656 111.523438 294.996094 111.523438 289.675781 L 111.523438 175.5 C 111.523438 170.179688 113.636719 165.078125 117.398438 161.316406 C 121.160156 157.554688 126.261719 155.441406 131.582031 155.441406 Z M 131.582031 155.441406 " fill-opacity="1" fill-rule="nonzero"/><g fill="#000000" fill-opacity="1"><g transform="translate(137.597013, 261.711908)"><g><path d="M 54.125 -13.875 L 53.9375 -13.875 C 50.84375 -13.875 49.0625 -3.84375 43.703125 -3.84375 L 12 -3.84375 L 51.59375 -61.34375 C 52.34375 -62.46875 53 -63.40625 53 -64.0625 L 53 -64.90625 C 53 -65.84375 52.15625 -66.59375 51.21875 -66.59375 L 7.5 -66.59375 C 6 -66.59375 5.4375 -65.84375 5.15625 -64.53125 L 2.625 -55.34375 C 2.34375 -53.84375 2.90625 -53.09375 4.03125 -53.09375 L 4.40625 -53.09375 C 7.6875 -53.09375 9.28125 -62.75 13.59375 -62.75 L 43.046875 -62.75 L 3.28125 -4.78125 C 2.71875 -3.9375 2.0625 -3.09375 2.0625 -2.25 L 2.0625 -1.6875 C 2.0625 -0.75 2.90625 0 3.9375 0 L 50.75 0 C 51.78125 0 52.625 -0.84375 53 -1.96875 L 55.625 -12 C 55.90625 -13.21875 55.25 -13.875 54.125 -13.875 Z M 54.125 -13.875 "/></g></g></g><g fill="#000000" fill-opacity="1"><g transform="translate(192.361692, 261.711908)"><g><path d="M 58.25 -6.5625 L 34.046875 -63.5 C 33.109375 -65.75 31.890625 -66.59375 29.640625 -66.59375 L 24.203125 -66.59375 C 23.265625 -66.59375 22.890625 -66.125 22.890625 -65.5625 L 22.890625 -65.28125 C 22.890625 -63.78125 26.921875 -62.5625 25.796875 -59.75 L 4.96875 -6.5625 C 3.65625 -3 0.5625 -3.09375 0.5625 -1.3125 L 0.5625 -1.125 C 0.5625 -0.375 1.21875 0 2.4375 0 L 11.34375 0 C 12.5625 0 13.3125 -0.375 13.3125 -1.125 L 13.3125 -1.3125 C 13.3125 -3.09375 8.8125 -3.28125 10.125 -6.5625 L 14.25 -17.640625 L 44.640625 -17.640625 L 49.15625 -6.5625 C 50.375 -3.28125 45.953125 -3.09375 45.953125 -1.3125 L 45.953125 -1.125 C 45.953125 -0.375 46.609375 0 47.75 0 L 60.96875 0 C 62.09375 0 62.75 -0.375 62.75 -1.125 L 62.75 -1.3125 C 62.75 -3.09375 59.75 -3.09375 58.25 -6.5625 Z M 15.859375 -21.671875 L 28.984375 -56.46875 L 43.046875 -21.671875 Z M 15.859375 -21.671875 "/></g></g></g><g fill="#000000" fill-opacity="1"><g transform="translate(253.221785, 261.711908)"><g><path d="M 54.125 -13.875 L 53.9375 -13.875 C 50.84375 -13.875 49.0625 -3.84375 43.703125 -3.84375 L 12 -3.84375 L 51.59375 -61.34375 C 52.34375 -62.46875 53 -63.40625 53 -64.0625 L 53 -64.90625 C 53 -65.84375 52.15625 -66.59375 51.21875 -66.59375 L 7.5 -66.59375 C 6 -66.59375 5.4375 -65.84375 5.15625 -64.53125 L 2.625 -55.34375 C 2.34375 -53.84375 2.90625 -53.09375 4.03125 -53.09375 L 4.40625 -53.09375 C 7.6875 -53.09375 9.28125 -62.75 13.59375 -62.75 L 43.046875 -62.75 L 3.28125 -4.78125 C 2.71875 -3.9375 2.0625 -3.09375 2.0625 -2.25 L 2.0625 -1.6875 C 2.0625 -0.75 2.90625 0 3.9375 0 L 50.75 0 C 51.78125 0 52.625 -0.84375 53 -1.96875 L 55.625 -12 C 55.90625 -13.21875 55.25 -13.875 54.125 -13.875 Z M 54.125 -13.875 "/></g></g></g><path fill="#dffd6e" d="M 161.832031 266.347656 L 288.164062 266.347656 C 293.101562 266.347656 297.832031 268.308594 301.324219 271.796875 C 304.816406 275.289062 306.777344 280.023438 306.777344 284.960938 L 306.777344 320.722656 C 306.777344 325.660156 304.816406 330.394531 301.324219 333.886719 C 297.832031 337.375 293.101562 339.335938 288.164062 339.335938 L 161.832031 339.335938 C 151.550781 339.335938 143.21875 331.003906 143.21875 320.722656 L 143.21875 284.960938 C 143.21875 274.679688 151.550781 266.347656 161.832031 266.347656 Z M 161.832031 266.347656 " fill-opacity="1" fill-rule="nonzero"/><g fill="#000000" fill-opacity="1"><g transform="translate(173.205463, 315.24637)"><g><path d="M 16.640625 -25.171875 L 16.640625 -15.171875 L 7.296875 -15.171875 L 7.296875 -25.171875 L 2.34375 -25.171875 L 2.34375 0 L 7.296875 0 L 7.296875 -10.421875 L 16.640625 -10.421875 L 16.640625 0 L 21.578125 0 L 21.578125 -25.171875 Z M 16.640625 -25.171875 "/></g></g></g><g fill="#000000" fill-opacity="1"><g transform="translate(199.556883, 315.24637)"><g><path d="M 16.140625 0 L 21.5 0 L 15.921875 -9.484375 C 18.796875 -10.828125 20.78125 -13.65625 20.78125 -16.828125 C 20.78125 -21.421875 17.046875 -25.171875 12.40625 -25.171875 L 2.34375 -25.171875 L 2.34375 0 L 7.296875 0 L 7.296875 -8.734375 L 11.078125 -8.734375 Z M 7.296875 -20.53125 L 12.40625 -20.53125 C 14.265625 -20.53125 15.8125 -18.90625 15.8125 -16.828125 C 15.8125 -14.734375 14.265625 -13.09375 12.40625 -13.09375 L 7.296875 -13.09375 Z M 7.296875 -20.53125 "/></g></g></g><g fill="#000000" fill-opacity="1"><g transform="translate(224.074867, 315.24637)"><g><path d="M 26.96875 -25.171875 L 21.859375 -25.171875 L 14.671875 -13.265625 L 7.4375 -25.171875 L 2.34375 -25.171875 L 2.34375 0 L 7.296875 0 L 7.296875 -16.28125 L 14.375 -4.640625 L 14.953125 -4.640625 L 22.046875 -16.328125 L 22.046875 0 L 26.96875 0 Z M 26.96875 -25.171875 "/></g></g></g><g fill="#000000" fill-opacity="1"><g transform="translate(255.818721, 315.24637)"><g><path d="M 10.9375 0.5 C 16.28125 0.5 20.0625 -2.375 20.0625 -7.078125 C 20.0625 -12.21875 15.8125 -13.546875 11.828125 -14.8125 C 8.015625 -15.96875 7.046875 -16.796875 7.046875 -18.34375 C 7.046875 -19.78125 8.265625 -20.859375 10.359375 -20.859375 C 12.90625 -20.859375 14.265625 -19.515625 15.171875 -17.609375 L 19.34375 -20.03125 C 17.65625 -23.546875 14.484375 -25.671875 10.359375 -25.671875 C 6.046875 -25.671875 2.078125 -22.9375 2.078125 -18.1875 C 2.078125 -13.40625 5.828125 -11.796875 9.671875 -10.671875 C 13.40625 -9.59375 15.09375 -8.875 15.09375 -7.015625 C 15.09375 -5.609375 14.0625 -4.34375 11.078125 -4.34375 C 7.953125 -4.34375 6.1875 -5.859375 5.28125 -8.203125 L 1.046875 -5.71875 C 2.40625 -1.984375 5.78125 0.5 10.9375 0.5 Z M 10.9375 0.5 "/></g></g></g><g clip-path="url(#928a016826)"><path fill="#ffffff" d="M 201.84375 104.78125 C 201.804688 105.246094 201.785156 105.71875 201.785156 106.191406 L 201.785156 137.351562 C 201.785156 141.035156 204.78125 144.035156 208.46875 144.035156 C 212.152344 144.035156 215.148438 141.035156 215.148438 137.351562 L 215.148438 118.964844 C 215.148438 111.433594 209.257812 105.25 201.84375 104.78125 Z M 248.15625 104.78125 C 240.738281 105.25 234.847656 111.433594 234.847656 118.964844 L 234.847656 137.351562 C 234.847656 141.035156 237.84375 144.035156 241.527344 144.035156 C 245.214844 144.035156 248.210938 141.035156 248.210938 137.351562 L 248.210938 106.191406 C 248.210938 105.71875 248.191406 105.246094 248.15625 104.78125 Z M 287.429688 158.367188 C 286.261719 158.367188 285.3125 157.421875 285.3125 156.25 L 285.3125 118.964844 C 285.3125 111.128906 278.9375 104.753906 271.101562 104.753906 L 252.398438 104.753906 C 252.429688 105.230469 252.445312 105.710938 252.445312 106.191406 L 252.445312 137.351562 C 252.445312 143.371094 247.546875 148.269531 241.527344 148.269531 C 235.511719 148.269531 230.613281 143.371094 230.613281 137.351562 L 230.613281 118.964844 C 230.613281 114.039062 232.53125 109.40625 236.015625 105.921875 C 239.078125 102.859375 243.027344 101.007812 247.289062 100.605469 C 244.957031 93.78125 238.484375 88.867188 230.886719 88.867188 L 219.109375 88.867188 C 211.511719 88.867188 205.039062 93.78125 202.710938 100.605469 C 206.96875 101.007812 210.917969 102.859375 213.980469 105.921875 C 217.464844 109.40625 219.382812 114.039062 219.382812 118.964844 L 219.382812 137.351562 C 219.382812 143.371094 214.488281 148.269531 208.46875 148.269531 C 202.449219 148.269531 197.550781 143.371094 197.550781 137.351562 L 197.550781 106.191406 C 197.550781 105.710938 197.566406 105.230469 197.597656 104.753906 L 178.894531 104.753906 C 171.058594 104.753906 164.683594 111.128906 164.683594 118.964844 L 164.683594 156.25 C 164.683594 157.421875 163.738281 158.367188 162.566406 158.367188 C 161.398438 158.367188 160.449219 157.421875 160.449219 156.25 L 160.449219 118.964844 C 160.449219 114.039062 162.367188 109.40625 165.851562 105.921875 C 169.335938 102.4375 173.96875 100.519531 178.894531 100.519531 L 198.300781 100.519531 C 199.273438 96.933594 201.167969 93.644531 203.867188 90.945312 C 207.9375 86.875 213.351562 84.632812 219.109375 84.632812 L 230.886719 84.632812 C 236.644531 84.632812 242.058594 86.875 246.128906 90.945312 C 248.828125 93.644531 250.722656 96.933594 251.695312 100.519531 L 271.101562 100.519531 C 276.027344 100.519531 280.660156 102.4375 284.144531 105.921875 C 287.628906 109.40625 289.546875 114.039062 289.546875 118.964844 L 289.546875 156.25 C 289.546875 157.421875 288.597656 158.367188 287.429688 158.367188 " fill-opacity="1" fill-rule="nonzero"/></g><path fill="#ffffff" d="M 225 49.234375 C 218.1875 49.234375 212.648438 54.773438 212.648438 61.582031 C 212.648438 68.390625 218.1875 73.929688 225 73.929688 C 231.808594 73.929688 237.347656 68.390625 237.347656 61.582031 C 237.347656 54.773438 231.808594 49.234375 225 49.234375 Z M 225 78.164062 C 220.570312 78.164062 216.40625 76.4375 213.273438 73.308594 C 210.140625 70.175781 208.417969 66.011719 208.417969 61.582031 C 208.417969 57.152344 210.140625 52.988281 213.273438 49.855469 C 216.40625 46.726562 220.570312 45 225 45 C 229.425781 45 233.589844 46.726562 236.722656 49.855469 C 239.855469 52.988281 241.582031 57.152344 241.582031 61.582031 C 241.582031 66.011719 239.855469 70.175781 236.722656 73.308594 C 233.589844 76.4375 229.425781 78.164062 225 78.164062 " fill-opacity="1" fill-rule="nonzero"/><path fill="#ffffff" d="M 261.585938 64.191406 C 254.777344 64.191406 249.234375 69.730469 249.234375 76.539062 C 249.234375 83.351562 254.777344 88.890625 261.585938 88.890625 C 268.394531 88.890625 273.933594 83.351562 273.933594 76.539062 C 273.933594 69.730469 268.394531 64.191406 261.585938 64.191406 Z M 261.585938 93.125 C 257.15625 93.125 252.992188 91.398438 249.859375 88.265625 C 246.726562 85.132812 245.003906 80.96875 245.003906 76.539062 C 245.003906 72.113281 246.726562 67.949219 249.859375 64.816406 C 252.992188 61.683594 257.15625 59.957031 261.585938 59.957031 C 266.015625 59.957031 270.179688 61.683594 273.308594 64.816406 C 276.441406 67.949219 278.167969 72.113281 278.167969 76.539062 C 278.167969 80.96875 276.441406 85.132812 273.308594 88.265625 C 270.179688 91.398438 266.015625 93.125 261.585938 93.125 " fill-opacity="1" fill-rule="nonzero"/><path fill="#ffffff" d="M 188.414062 64.191406 C 181.601562 64.191406 176.0625 69.730469 176.0625 76.542969 C 176.0625 83.347656 181.601562 88.890625 188.414062 88.890625 C 195.222656 88.890625 200.761719 83.347656 200.761719 76.542969 C 200.761719 69.730469 195.222656 64.191406 188.414062 64.191406 Z M 188.414062 93.121094 C 183.984375 93.121094 179.820312 91.398438 176.6875 88.265625 C 173.554688 85.132812 171.832031 80.96875 171.832031 76.542969 C 171.832031 72.113281 173.554688 67.949219 176.6875 64.816406 C 179.820312 61.683594 183.984375 59.957031 188.414062 59.957031 C 192.839844 59.957031 197.003906 61.683594 200.136719 64.816406 C 203.269531 67.949219 204.996094 72.113281 204.996094 76.542969 C 204.996094 80.96875 203.269531 85.132812 200.136719 88.265625 C 197.003906 91.398438 192.839844 93.121094 188.414062 93.121094 " fill-opacity="1" fill-rule="nonzero"/></svg>